<?xml version="1.0" encoding="UTF-8" standalone="no"?>
<svg
   xmlns:dc="http://purl.org/dc/elements/1.1/"
   xmlns:cc="http://creativecommons.org/ns#"
   xmlns:rdf="http://www.w3.org/1999/02/22-rdf-syntax-ns#"
   xmlns:svg="http://www.w3.org/2000/svg"
   xmlns="http://www.w3.org/2000/svg"
   xmlns:sodipodi="http://sodipodi.sourceforge.net/DTD/sodipodi-0.dtd"
   xmlns:inkscape="http://www.inkscape.org/namespaces/inkscape"
   height="512pt"
   viewBox="-97 0 511 512"
   width="512pt"
   version="1.1"
   id="svg58"
   sodipodi:docname="flamenco_Freepik.svg"
   inkscape:version="0.92.3 (2405546, 2018-03-11)">
  <metadata
     id="metadata64">
    <rdf:RDF>
      <cc:Work
         rdf:about="">
        <dc:format>image/svg+xml</dc:format>
        <dc:type
           rdf:resource="http://purl.org/dc/dcmitype/StillImage" />
        <dc:title></dc:title>
      </cc:Work>
    </rdf:RDF>
  </metadata>
  <defs
     id="defs62" />
  <sodipodi:namedview
     pagecolor="#ffffff"
     bordercolor="#666666"
     borderopacity="1"
     objecttolerance="10"
     gridtolerance="10"
     guidetolerance="10"
     inkscape:pageopacity="0"
     inkscape:pageshadow="2"
     inkscape:window-width="1920"
     inkscape:window-height="1057"
     id="namedview60"
     showgrid="false"
     inkscape:zoom="1.3828125"
     inkscape:cx="139.9585"
     inkscape:cy="353.50611"
     inkscape:window-x="-8"
     inkscape:window-y="-8"
     inkscape:window-maximized="1"
     inkscape:current-layer="svg58"
     inkscape:pagecheckerboard="true" />
  <path
     d="m97.820312 141.179688v-69.523438s45.660157 11.015625 46.453126-35.1875c-.28125 16.441406 8.785156 30.824219 21.910156 38.734375l.082031 65.976563h24.144531l-.085937-74.058594c0-30.738282-27.914063-55.367188-58.324219-55.367188-30.578125 0-58.324219 24.789063-58.324219 55.367188v55.09375l18.964844 18.964844zm0 0"
     fill="#72869e"
     id="path2"
     style="fill:#455364;fill-opacity:1" />
  <path
     d="m166.183594 75.203125c-13.128906-7.910156-22.195313-22.292969-21.914063-38.734375-.789062 46.203125-46.453125 35.1875-46.453125 35.1875v44.273438c5.597656 5.59375 10.628906 10.628906 17.640625 17.636718h33.085938c7.007812-7.007812 12.042969-12.042968 17.636719-17.636718v-40.726563zm0 0"
     fill="#ffb680"
     id="path4" />
  <path
     d="m182.734375 504.492188h-25.671875l-15.011719-15.015626v-28.273437h40.683594zm0 0"
     fill="#ffb680"
     id="path6" />
  <path
     d="m80.792969 504.492188h25.667969l15.015624-15.015626v-28.273437h-40.683593zm0 0"
     fill="#ffb680"
     id="path8" />
  <path
     d="m241.757812 424.167969v-26.105469l-17.03125-17.03125v-29.4375l-19.519531-19.519531v-25.269531l-22.550781-25.738282.113281-89.902344h8.054688l10.285156 13.414063 30.375-23.117187-30.972656-40.28125h-42.976563l-25.769531 22.230468-25.746094-22.230468h-13.378906l-18.964844-18.96875-27.136719 30.332031 34.234376 36.257812.101562 92.261719-22.554688 25.742188v25.269531l-19.519531 19.519531v29.4375l-17.03125 17.03125v26.105469l-13.757812 13.753906v23.28125h247.503906v-23.28125zm0 0"
     id="path10"
     fill="#e21743"
     style="fill:#ffee52;fill-opacity:0.48971194" />
  <path
     d="m201.109375 204.578125 34.636719 44.242187 70.371094-47.054687 2.625-20.707031-12.160157-19.15625-53.191406 35.039062-11.90625-15.480468zm0 0"
     fill="#ffb680"
     id="path12" />
  <path
     d="m46.539062 152.542969-32.035156-33.925781v-95.09375l16.015625-16.015626h24.285157v95.832032l18.871093 18.871094zm0 0"
     fill="#ffb680"
     id="path14" />
  <path
     d="m157.535156 141.179688v-16.605469l-8.992187 8.992187h-33.085938l-9.4375-9.4375v17.050782l25.746094 22.230468zm0 0"
     fill="#ffb680"
     id="path16" />
  <path
     d="m112.765625 389.417969v-15.015625h15.015625v15.015625zm25.027344-.003907v-15.011718h15.011719v15.011718zm0 0"
     fill="#fff"
     id="path18" />
  <path
     d="m112.765625 389.417969v-15.015625h15.015625v15.015625zm25.027344-.003907v-15.011718h15.011719v15.011718zm0 0"
     fill="#fff"
     id="path20" />
  <path
     d="m93.695312 122.210938v-55.089844c0-27.195313 21.949219-49.792969 48.316407-54.464844-34.730469-6.15625-68.335938 20.890625-68.335938 54.464844v55.09375l18.964844 18.964844h5.175781v-14.84375zm0 0"
     fill="#61748b"
     id="path22"
     style="fill:#29313a;fill-opacity:1" />
  <path
     d="m118.765625 71.851562c-.597656-.113281-.925781-.195312-.925781-.195312v.375c.308594-.054688.617187-.113281.925781-.179688zm0 0"
     fill="#61748b"
     id="path24" />
  <path
     d="m164.292969 36.46875c-.238281 13.851562-4.511719 22.554688-10.375 27.960938 3.414062 4.277343 7.574219 7.945312 12.265625 10.773437l.082031 65.972656h20.019531l-.082031-65.972656c-13.125-7.910156-22.191406-22.292969-21.910156-38.734375zm0 0"
     fill="#61748b"
     id="path26"
     style="fill:#29313a;fill-opacity:1" />
  <path
     d="m153.917969 64.429688c-6.132813-7.695313-9.828125-17.394532-9.644531-27.960938-.417969 24.429688-13.382813 32.859375-25.507813 35.382812 4.34375.847657 23.109375 3.679688 35.152344-7.421874zm0 0"
     fill="#eb975d"
     id="path28" />
  <path
     d="m117.839844 115.929688v-43.894532c-10.453125 1.929688-20.019532-.375-20.019532-.375v44.269532c5.59375 5.59375 10.628907 10.628906 17.636719 17.636718h20.019531c-7.007812-7.007812-12.042968-12.042968-17.636718-17.636718zm0 0"
     fill="#eb975d"
     id="path30" />
  <path
     d="m162.070312 461.203125h-20.019531v28.273437l15.011719 15.015626h20.019531l-15.011719-15.015626zm0 0"
     fill="#eb975d"
     id="path32" />
  <path
     d="m80.792969 461.203125h20.019531v43.289063h-20.019531zm0 0"
     fill="#eb975d"
     id="path34" />
  <path
     d="m202.789062 191.164062-.011718 12.144532 10.972656-8.351563-2.902344-3.792969zm0 0"
     fill="#b51135"
     id="path36"
     style="fill:#ffee52;fill-opacity:1" />
  <path
     d="m41.789062 424.167969v-26.105469l17.03125-17.03125v-29.4375l19.519532-19.519531v-25.269531l22.554687-25.742188-.101562-92.261719-34.234375-36.257812 17.683594-19.765625-10.566407-10.566406-27.136719 30.332031 34.234376 36.257812.101562 92.261719-22.554688 25.742188v25.269531l-19.519531 19.519531v29.4375l-17.03125 17.03125v26.105469l-13.757812 13.753906v23.28125h20.023437v-23.28125zm0 0"
     fill="#b51135"
     id="path38"
     style="fill:#ffee52;fill-opacity:1" />
  <path
     d="m151.785156 163.410156 25.769532-22.230468h-20.019532l-15.753906 13.589843zm0 0"
     fill="#b51135"
     id="path40"
     style="fill:#ffee52;fill-opacity:1" />
  <g
     fill="#eb975d"
     id="g52">
    <path
       d="m263.410156 196.941406 39.074219-25.738281-5.902344-9.300781-39.902343 26.285156zm0 0"
       id="path42" />
    <path
       d="m221.128906 204.578125 17.746094-13.507813-7.390625-9.609374-30.375 23.117187 34.636719 44.242187 13.140625-8.785156zm0 0"
       id="path44" />
    <path
       d="m34.523438 118.617188v-95.09375l16.015624-16.015626h-20.019531l-16.015625 16.015626v95.09375l32.035156 33.925781 9.738282-10.886719zm0 0"
       id="path46" />
    <path
       d="m157.535156 124.574219-8.992187 8.992187h8.992187zm0 0"
       id="path48" />
    <path
       d="m126.042969 141.179688v-7.613282h-10.585938l-9.4375-9.4375v17.050782l25.746094 22.230468 10.015625-8.640625zm0 0"
       id="path50" />
  </g>
  <path
     d="m15.515625 453.695312v-12.664062l13.765625-13.753906v-26.109375l17.023438-17.023438v-29.441406l15.121093-15.121094h96.710938v-15.015625h-92.3125v-14.941406l22.554687-25.742188-.042968-38.652343-15.015626.015625.039063 32.996094-22.550781 25.734374v24.988282l-19.519532 19.519531v29.4375l-17.027343 17.027344v26.105469l-13.761719 13.753906v33.902344h72.78125v43.289062h36.289062l19.414063-19.414062v-23.875h5.554687v23.875l19.414063 19.414062h36.289063v-43.289062h14.769531v-15.015626c-36.441407 0-152.359375 0-189.496094 0zm98.453125 32.671876-10.617188 10.617187h-15.054687v-28.273437h25.671875zm61.257812 10.617187h-15.054687l-10.617187-10.617187v-17.65625h25.671874zm0 0"
     id="path54" />
  <path
     d="m199.703125 215.085938c.101563-.078126-2.527344-3.355469 34.425781 43.847656l79.007813-52.828125 3.394531-26.789063-17.703125-27.882812-53.742187 35.398437-12.203126-15.871093v.003906l-28.675781-37.292969h-6.300781l-.074219-66.550781c0-34.078125-30.148437-62.871094-65.832031-62.871094s-65.832031 28.792969-65.832031 62.871094v36.96875l-3.859375-3.859375v-100.230469h-34.902344l-20.414062 20.414062v101.1875l29.347656 31.082032v.003906l36.925781 39.105469.035156 33.4375 15.015625-.019531-.042968-39.394532-31.542969-33.40625 17.246093-19.273437c10.011719 10.007812 6.34375 6.339843 15.554688 15.550781h13.695312c19.835938 17.128906 13.417969 11.585938 28.527344 24.640625l.003906-.003906v.003906l28.566407-24.640625h36.488281l24.117188 31.367188c-19.992188 15.21875-16.976563 12.921874-18.414063 14.019531l-7.980469-10.414063h-19.261718l-.125 100.222656 22.546874 25.742188v25.558594l19.519532 19.519531v29.441406l17.035156 17.027344v15.488281h-122.390625v15.015625h126.789063l9.359374 9.355469v12.664062h-22.972656v15.015626h37.984375v-33.898438l-13.75-13.753906v-26.109375l-17.039062-17.027344v-29.4375l-19.519531-19.519531v-24.988282l-22.539063-25.730468.09375-75.476563.300781.398438-.0625.046875c5.617188 7.171875 3.511719 4.449218 9.199219 11.871094zm-82.3125-74.011719h28.769531l-14.394531 12.417969c-1.316406-1.136719-.054687-.046876-14.375-12.417969zm26.925781-77.300781c2.265625 3.710937 4.804688 6.875 7.726563 9.804687.605469.605469-.054688.003906 1.578125 1.511719.285156.265625.5625.535156.855468.796875.277344.246093.570313.476562.855469.71875 1.703125 1.441406 1.113281.933593 1.84375 1.492187.496094.386719.988281.773438 1.5 1.140625v33.582031l-13.242187 13.238282h-26.867188l-13.238281-13.238282v-32.625c15.492187.894532 30.390625-3.714843 38.988281-16.421874zm-63.132812 3.347656c0-25.492188 23.746094-47.859375 50.816406-47.859375s50.816406 22.367187 50.816406 47.867187l.078125 66.539063h-9.128906c-.085937-66.101563-.074219-56.714844-.074219-62.707031l-3.632812-2.191407c-11.496094-6.925781-18.5-19.25-18.277344-32.167969 0 0 0 0 0-.003906l-15.015625-.257812c-.1875 11.074218-3.285156 19.023437-9.203125 23.636718-5.339844 4.15625-12.296875 5.261719-17.9375 5.320313-5.640625.0625-9.96875-.921875-10.042969-.9375l-9.269531-2.234375v66.105469c-1.796875-1.800781-7.328125-7.328125-9.125-9.128907v-51.980468zm-59.171875-40.488282 11.617187-11.617187h13.667969v91.433594l16.050781 16.050781-16.957031 18.953125-24.378906-25.820313zm272.324219 145.738282 6.617187 10.425781-1.855469 14.632813-61.734375 41.277343-25.652343-32.761719c2.039062-1.554687 16.324218-12.425781 18.375-13.988281l11.605468 15.09375zm0 0"
     id="path56" />
</svg>
